<?xml version="1.0" standalone="no"?>
<!DOCTYPE svg PUBLIC "-//W3C//DTD SVG 20010904//EN"
 "http://www.w3.org/TR/2001/REC-SVG-20010904/DTD/svg10.dtd">
<svg version="1.0" xmlns="http://www.w3.org/2000/svg"
 width="1400.000000pt" height="1400.000000pt" viewBox="0 0 1400.000000 1400.000000"
 preserveAspectRatio="xMidYMid meet">

<g transform="translate(0.000000,1400.000000) scale(0.100000,-0.100000)"
fill="#000000" stroke="none">
<path d="M3401 10974 c-137 -37 -276 -150 -338 -274 -68 -135 -63 150 -63
-3706 0 -3176 1 -3502 16 -3567 34 -153 137 -290 273 -361 136 -71 -167 -66
3709 -66 3846 0 3568 -4 3701 61 127 63 251 221 280 357 8 38 11 1034 10 3585
0 3305 -1 3536 -17 3598 -45 170 -201 326 -371 371 -62 16 -292 17 -3606 17
-3060 0 -3547 -2 -3594 -15z m1974 -1463 c87 -23 184 -65 256 -112 l47 -30 63
41 c142 90 324 137 494 127 123 -8 206 -28 311 -77 113 -52 187 -105 270 -192
79 -83 131 -163 174 -268 60 -146 60 -145 60 -990 l0 -770 -330 0 -330 0 0
743 c0 703 -1 744 -19 783 -23 50 -71 88 -129 104 -84 22 -191 -33 -221 -113
-8 -19 -11 -272 -11 -773 l0 -744 -335 0 -335 0 0 745 c0 816 3 772 -58 838
-38 40 -118 62 -174 47 -57 -15 -104 -52 -128 -100 -19 -38 -20 -60 -20 -785
l0 -745 -330 0 -330 0 0 778 c0 742 1 781 20 860 95 396 460 673 865 658 67
-3 141 -12 190 -25z m3332 14 c494 -80 873 -453 958 -943 93 -534 -212 -1070
-720 -1266 -122 -46 -227 -67 -370 -73 -543 -22 -1019 333 -1156 862 -28 107
-32 137 -33 270 -2 253 55 449 191 654 243 366 698 566 1130 496z m-2288
-2809 c307 -83 550 -343 616 -656 13 -60 15 -197 15 -841 l0 -769 -327 2 -328
3 -5 750 c-4 672 -7 753 -21 780 -37 66 -100 99 -180 93 -74 -5 -129 -40 -158
-100 -21 -44 -21 -51 -21 -786 l0 -742 -335 0 -335 0 0 743 c1 409 -2 752 -6
762 -25 70 -103 125 -178 125 -82 0 -142 -39 -177 -115 -18 -38 -19 -81 -19
-782 l0 -743 -330 0 -331 0 4 803 c3 898 -2 836 78 1007 112 239 329 413 590
475 85 20 293 20 378 0 87 -21 184 -61 261 -108 l65 -39 30 18 c144 85 264
130 377 142 98 10 259 -1 337 -22z m2356 3 c666 -144 1060 -832 849 -1483 -55
-171 -182 -370 -311 -485 -133 -120 -313 -219 -483 -267 -126 -34 -359 -44
-495 -20 -247 43 -460 158 -636 343 -176 185 -280 407 -310 664 -68 585 338
1138 921 1254 108 22 354 19 465 -6z"/>
<path d="M8450 8869 c-87 -15 -193 -70 -259 -137 -283 -282 -124 -762 272
-824 242 -37 478 123 542 367 69 268 -123 552 -402 594 -80 12 -76 12 -153 0z"/>
<path d="M8403 6065 c-304 -82 -450 -445 -290 -718 33 -56 140 -156 198 -184
105 -52 234 -66 344 -38 174 46 317 197 354 373 52 247 -99 492 -348 566 -66
19 -187 20 -258 1z"/>
</g>
</svg>
